<mxfile host="Electron" agent="Mozilla/5.0 (Windows NT 10.0; Win64; x64) AppleWebKit/537.36 (KHTML, like Gecko) draw.io/24.7.8 Chrome/128.0.6613.36 Electron/32.0.1 Safari/537.36" version="24.7.8">
  <diagram name="Page-1" id="cSrhHbSTPXfuUm9u7u2y">
    <mxGraphModel dx="1183" dy="785" grid="1" gridSize="10" guides="1" tooltips="1" connect="1" arrows="1" fold="1" page="1" pageScale="1" pageWidth="787" pageHeight="217" math="0" shadow="0">
      <root>
        <mxCell id="0" />
        <mxCell id="1" parent="0" />
        <mxCell id="Ga5Mp6_28TKJu6ORQ0kK-13" value="" style="endArrow=none;html=1;rounded=0;dashed=1;entryX=0.171;entryY=0.029;entryDx=0;entryDy=0;entryPerimeter=0;" edge="1" parent="1" target="Ga5Mp6_28TKJu6ORQ0kK-1">
          <mxGeometry width="50" height="50" relative="1" as="geometry">
            <mxPoint x="209" y="142.5" as="sourcePoint" />
            <mxPoint x="209.70999999999998" y="102.5" as="targetPoint" />
          </mxGeometry>
        </mxCell>
        <mxCell id="Ga5Mp6_28TKJu6ORQ0kK-1" value="" style="rounded=0;whiteSpace=wrap;html=1;" vertex="1" parent="1">
          <mxGeometry x="120" y="22.5" width="520" height="10" as="geometry" />
        </mxCell>
        <mxCell id="Ga5Mp6_28TKJu6ORQ0kK-2" value="" style="rounded=0;whiteSpace=wrap;html=1;" vertex="1" parent="1">
          <mxGeometry x="110" y="10" width="10" height="35" as="geometry" />
        </mxCell>
        <mxCell id="Ga5Mp6_28TKJu6ORQ0kK-3" value="" style="rounded=0;whiteSpace=wrap;html=1;" vertex="1" parent="1">
          <mxGeometry x="640" y="10" width="10" height="35" as="geometry" />
        </mxCell>
        <mxCell id="Ga5Mp6_28TKJu6ORQ0kK-4" value="" style="rounded=0;whiteSpace=wrap;html=1;" vertex="1" parent="1">
          <mxGeometry x="360" y="10" width="40" height="35" as="geometry" />
        </mxCell>
        <mxCell id="Ga5Mp6_28TKJu6ORQ0kK-5" value="" style="endArrow=none;html=1;rounded=0;" edge="1" parent="1">
          <mxGeometry width="50" height="50" relative="1" as="geometry">
            <mxPoint x="380.21" y="72.5" as="sourcePoint" />
            <mxPoint x="379.71" y="52.5" as="targetPoint" />
          </mxGeometry>
        </mxCell>
        <mxCell id="Ga5Mp6_28TKJu6ORQ0kK-6" value="" style="endArrow=none;html=1;rounded=0;endFill=0;startArrow=classic;startFill=1;" edge="1" parent="1">
          <mxGeometry width="50" height="50" relative="1" as="geometry">
            <mxPoint x="260" y="92.5" as="sourcePoint" />
            <mxPoint x="380" y="62.5" as="targetPoint" />
            <Array as="points">
              <mxPoint x="160" y="92.5" />
              <mxPoint x="140" y="82.5" />
              <mxPoint x="140" y="72.5" />
              <mxPoint x="160" y="62.5" />
            </Array>
          </mxGeometry>
        </mxCell>
        <mxCell id="Ga5Mp6_28TKJu6ORQ0kK-7" value="" style="rounded=0;whiteSpace=wrap;html=1;fillColor=none;dashed=1;dashPattern=1 1;" vertex="1" parent="1">
          <mxGeometry x="120" y="10" width="40" height="35" as="geometry" />
        </mxCell>
        <mxCell id="Ga5Mp6_28TKJu6ORQ0kK-8" value="" style="endArrow=none;html=1;rounded=0;dashed=1;" edge="1" parent="1">
          <mxGeometry width="50" height="50" relative="1" as="geometry">
            <mxPoint x="140" y="142.5" as="sourcePoint" />
            <mxPoint x="139.70999999999998" y="52.5" as="targetPoint" />
          </mxGeometry>
        </mxCell>
        <mxCell id="Ga5Mp6_28TKJu6ORQ0kK-11" value="1" style="ellipse;whiteSpace=wrap;html=1;aspect=fixed;" vertex="1" parent="1">
          <mxGeometry x="199" y="82.5" width="20" height="20" as="geometry" />
        </mxCell>
        <mxCell id="Ga5Mp6_28TKJu6ORQ0kK-15" value="" style="endArrow=none;html=1;rounded=0;dashed=1;entryX=0.171;entryY=0.029;entryDx=0;entryDy=0;entryPerimeter=0;" edge="1" parent="1">
          <mxGeometry width="50" height="50" relative="1" as="geometry">
            <mxPoint x="260" y="142.5" as="sourcePoint" />
            <mxPoint x="260" y="22.5" as="targetPoint" />
          </mxGeometry>
        </mxCell>
        <mxCell id="Ga5Mp6_28TKJu6ORQ0kK-16" value="" style="endArrow=classic;startArrow=classic;html=1;rounded=0;" edge="1" parent="1">
          <mxGeometry width="50" height="50" relative="1" as="geometry">
            <mxPoint x="210" y="132.5" as="sourcePoint" />
            <mxPoint x="260" y="132.5" as="targetPoint" />
          </mxGeometry>
        </mxCell>
        <mxCell id="Ga5Mp6_28TKJu6ORQ0kK-17" value="MoveAway" style="text;strokeColor=none;align=center;fillColor=none;html=1;verticalAlign=middle;whiteSpace=wrap;rounded=0;connectable=0;allowArrows=0;" vertex="1" parent="1">
          <mxGeometry x="260" y="122.5" width="70" height="20" as="geometry" />
        </mxCell>
        <mxCell id="Ga5Mp6_28TKJu6ORQ0kK-18" value="" style="endArrow=classic;html=1;rounded=0;" edge="1" parent="1">
          <mxGeometry width="50" height="50" relative="1" as="geometry">
            <mxPoint x="110" y="182.5" as="sourcePoint" />
            <mxPoint x="650" y="182.5" as="targetPoint" />
          </mxGeometry>
        </mxCell>
        <mxCell id="Ga5Mp6_28TKJu6ORQ0kK-19" value="Positive" style="text;strokeColor=none;align=left;fillColor=none;html=1;verticalAlign=middle;whiteSpace=wrap;rounded=0;connectable=0;allowArrows=0;" vertex="1" parent="1">
          <mxGeometry x="650" y="172.5" width="70" height="20" as="geometry" />
        </mxCell>
        <mxCell id="Ga5Mp6_28TKJu6ORQ0kK-21" value="" style="endArrow=none;html=1;rounded=0;entryX=0.167;entryY=0.036;entryDx=0;entryDy=0;entryPerimeter=0;exitX=0.167;exitY=1.012;exitDx=0;exitDy=0;exitPerimeter=0;" edge="1" parent="1">
          <mxGeometry width="50" height="50" relative="1" as="geometry">
            <mxPoint x="208.97" y="32.5" as="sourcePoint" />
            <mxPoint x="208.97" y="22.5" as="targetPoint" />
            <Array as="points">
              <mxPoint x="208.97" y="32.5" />
              <mxPoint x="208.97" y="27.5" />
            </Array>
          </mxGeometry>
        </mxCell>
        <mxCell id="Ga5Mp6_28TKJu6ORQ0kK-22" value="Index" style="text;strokeColor=none;align=center;fillColor=none;html=1;verticalAlign=middle;whiteSpace=wrap;rounded=0;connectable=0;allowArrows=0;" vertex="1" parent="1">
          <mxGeometry x="174" y="142.5" width="70" height="20" as="geometry" />
        </mxCell>
        <mxCell id="Ga5Mp6_28TKJu6ORQ0kK-23" value="LowSwitch" style="text;strokeColor=none;align=center;fillColor=none;html=1;verticalAlign=middle;whiteSpace=wrap;rounded=0;connectable=0;allowArrows=0;" vertex="1" parent="1">
          <mxGeometry x="105" y="142.5" width="70" height="20" as="geometry" />
        </mxCell>
      </root>
    </mxGraphModel>
  </diagram>
</mxfile>
